<?xml version="1.0" encoding="UTF-8"?>
<svg id="Layer_2" data-name="Layer 2" xmlns="http://www.w3.org/2000/svg" viewBox="0 0 944.22 944.22">
  <defs>
    <style>
      .cls-1 {
        fill: none;
      }

      .cls-1, .cls-2 {
        stroke-width: 0px;
      }

      .cls-2 {
        fill: #fff;
      }
    </style>
  </defs>
  <g id="Layer_1-2" data-name="Layer 1">
    <g>
      <rect class="cls-1" width="944.22" height="944.22"/>
      <g>
        <path class="cls-2" d="M622.91,267.99l35.34,79.36c-17.37-3.15-35.83-1.3-53.14,6.41-45.88,20.43-66.58,74.37-46.15,120.25,20.43,45.88,74.37,66.58,120.25,46.15,17.31-7.71,31.03-20.19,40.31-35.21l6.41,14.4,36.48-16.24-103.02-231.36-36.48,16.24ZM662.97,483.69c-25.77,11.47-56.06-.15-67.53-25.92s.16-56.06,25.92-67.53c25.77-11.47,56.06.15,67.53,25.92,11.47,25.77-.16,56.06-25.92,67.53Z"/>
        <path class="cls-2" d="M420.47,435.98c-17.31,7.71-31.03,20.19-40.31,35.21l-35.34-79.36-36.48,16.24,103.02,231.36,36.48-16.24-6.41-14.4c17.37,3.15,35.83,1.3,53.14-6.41,45.88-20.43,66.58-74.37,46.15-120.25-20.43-45.88-74.37-66.58-120.25-46.15ZM478.33,565.91c-25.77,11.47-56.06-.15-67.53-25.92-11.47-25.77.16-56.06,25.92-67.53,25.77-11.47,56.06.15,67.53,25.92,11.47,25.77-.16,56.06-25.92,67.53Z"/>
        <path class="cls-2" d="M282.56,497.39l6.42,14.41c-17.38-3.15-35.83-1.31-53.14,6.4-45.89,20.43-66.58,74.38-46.15,120.25,20.43,45.89,74.36,66.58,120.25,46.15,17.31-7.71,31.03-20.18,40.32-35.2l6.41,14.39,36.48-16.24-74.09-166.4-36.48,16.24ZM293.69,648.12c-25.77,11.47-56.06-.15-67.53-25.92-11.47-25.77.15-56.06,25.92-67.53,25.77-11.47,56.06.15,67.53,25.92,11.47,25.77-.15,56.06-25.92,67.53Z"/>
      </g>
    </g>
  </g>
</svg>