<?xml version="1.0" encoding="utf-8"?>
<!-- Generator: Adobe Illustrator 28.2.0, SVG Export Plug-In . SVG Version: 6.00 Build 0)  -->
<svg version="1.1" id="Layer_1" xmlns="http://www.w3.org/2000/svg" xmlns:xlink="http://www.w3.org/1999/xlink" x="0px" y="0px"
	 viewBox="0 0 1983 291" style="enable-background:new 0 0 1983 291;" xml:space="preserve">
<style type="text/css">
	.st0{opacity:0.3;}
	.st1{fill:#8B8B8B;}
	.st2{opacity:0.5;}
	.st3{opacity:0.1;}
	.st4{fill:none;}
</style>
<g class="st0">
	<path class="st1" d="M766.2,185.4l-46.6-26.9l-46.5,26.8v54l46.5,26.8l46.6-26.9V185.4z"/>
	<path class="st1" d="M1326.1,98.2l-46.6-26.9l-46.5,26.8v54l46.5,26.8l46.6-26.9V98.2z"/>
	<path class="st1" d="M1674.9,35l-46.6-26.9l-46.5,26.8v54l46.5,26.8l46.6-26.9V35z"/>
	<path class="st1" d="M816.4,98.2l-46.5-26.8l-46.6,26.9V152l46.6,26.9l46.5-26.8V98.2z"/>
	<path class="st1" d="M294,163.4v54l-46.5,26.8l-46.6-26.9v-53.8l46.6-26.9L294,163.4z"/>
	<path class="st1" d="M150.8,76.2l46.5-26.8l46.6,26.9v53.8L197.3,157l-46.5-26.8V76.2z"/>
	<path class="st1" d="M0,163.4l46.5-26.8l46.6,26.9v53.8l-46.6,26.9L0,217.4V163.4z"/>
	<path class="st1" d="M143.2,130.2L96.8,157l-46.5-26.8v-54l46.5-26.8l46.5,26.8V130.2z"/>
</g>
<path class="st1" d="M275,88.8v-56l48.5-28l48.4,27.9v56.1l-48.4,27.9L275,88.8L275,88.8z M278.7,35v51.7l44.8,25.8l44.6-25.8V34.9
	L323.5,9.1L278.7,35z"/>
<path class="st1" d="M479.6,237.2v-56l48.5-28l48.3,27.9v56.1l-48.3,27.9L479.6,237.2z M483.4,183.3V235l44.8,25.8l44.6-25.8v-51.8
	l-44.6-25.8L483.4,183.3z"/>
<path class="st1" d="M580.3,237.2v-56.1l48.3-27.9l48.4,27.9v56.1l-48.4,27.9L580.3,237.2z M584,183.3v51.8l44.6,25.8l44.6-25.8
	v-51.8l-44.6-25.8L584,183.3z"/>
<path class="st1" d="M529.9,149.9V94l48.5-28l48.3,27.9V150l-48.3,27.9L529.9,149.9L529.9,149.9z M533.6,96.1v51.7l44.8,25.8
	l44.6-25.8V96.1l-44.6-25.8L533.6,96.1L533.6,96.1z"/>
<path class="st1" d="M6.3,239v-56l48.5-28l48.3,27.9v56.1L54.8,267L6.3,239L6.3,239z M10,185.2v51.7l44.8,25.8l44.6-25.8v-51.8
	l-44.6-25.8L10,185.2z"/>
<path class="st1" d="M107,239.1V183l48.3-27.9l48.5,28v56l-48.5,28L107,239.1L107,239.1z M110.7,185.1v51.8l44.6,25.8l44.8-25.8
	v-51.7l-44.8-25.8L110.7,185.1L110.7,185.1z"/>
<g class="st2">
	<path class="st1" d="M867.7,214.4V71.2L991.1,0l123.4,71.2v143.2l-123.4,71.2L867.7,214.4z M871.4,73.4v138.9l119.7,69.1
		l119.7-69.1V73.4L991.1,4.3L871.4,73.4L871.4,73.4z"/>
</g>
<g class="st2">
	<g class="st0">
		<path class="st1" d="M1334.9,145.5v37.6l32.3,18.7l32.4-18.7v-37.4l-32.4-18.7L1334.9,145.5z"/>
		<path class="st1" d="M1504.6,206.3l-32.4-18.7l-32.4,18.7v37.5l32.4,18.7l32.4-18.7V206.3z"/>
		<path class="st1" d="M1434.6,84.8l-32.3-18.7l-32.4,18.7v37.5l32.4,18.7l32.3-18.7V84.8z"/>
		<path class="st1" d="M1399.7,24.2l-32.4-18.7l-32.3,18.7v37.6l32.3,18.7l32.4-18.7V24.2z"/>
		<path class="st1" d="M1579.8,84.8v37.6l32.4,18.7l32.4-18.7V84.9l-32.4-18.7L1579.8,84.8z"/>
		<path class="st1" d="M1539.5,145.5l-32.3-18.7l-32.4,18.7V183l32.4,18.7l32.3-18.7V145.5z"/>
		<path class="st1" d="M1439.8,122.4l32.3,18.7l32.4-18.7V84.8l-32.4-18.7l-32.3,18.7V122.4z"/>
		<path class="st1" d="M1609.6,145.6l-32.4-18.7l-32.3,18.7v37.6l32.3,18.7l32.4-18.7V145.6z"/>
		<path class="st1" d="M1299.8,243.7l32.4,18.7l32.4-18.7v-37.4l-32.4-18.7l-32.4,18.7V243.7z"/>
	</g>
	<path class="st1" d="M1163.3,173.3v-38.9l33.7-19.5l33.6,19.4v39.1l-33.6,19.4L1163.3,173.3z M1165.9,135.8v36l31.1,18l31.1-17.9
		v-36.1l-31.1-17.9L1165.9,135.8z"/>
	<path class="st1" d="M1440.7,185.2v-38.9l33.7-19.5l33.6,19.4v39.1l-33.6,19.4L1440.7,185.2z M1443.3,147.8v36l31.1,18l31.1-17.9
		v-36.1l-31.1-17.9L1443.3,147.8z"/>
	<path class="st1" d="M1750.8,91.5v-39l33.7-19.5l33.6,19.4v39l-33.6,19.4L1750.8,91.5z M1753.3,54.1v36l31.1,18l31.1-17.9V54
		l-31.1-17.9L1753.3,54.1z"/>
	<path class="st1" d="M552.6,60.2v-39l33.7-19.5l33.7,19.4v39l-33.6,19.4L552.6,60.2L552.6,60.2z M555.2,22.8v36l31.1,18l31.1-17.9
		V22.7L586.3,4.8L555.2,22.8z"/>
	<path class="st1" d="M622.6,60.3V21.2l33.6-19.4l33.6,19.4v39.1l-33.6,19.4L622.6,60.3z M625.2,22.7v36.1l31.1,17.9l31.1-17.9V22.7
		L656.3,4.8L625.2,22.7z"/>
	<path class="st1" d="M1632.7,166.6v-39l33.6-19.4l33.7,19.5v39l-33.7,19.5L1632.7,166.6L1632.7,166.6z M1635.3,129.1v36.1
		l31.1,17.9l31.1-18v-36l-31.1-18L1635.3,129.1z"/>
	<path class="st1" d="M1597.6,227.2v-38.9l33.7-19.5l33.7,19.5v38.9l-33.7,19.5L1597.6,227.2z M1600.2,189.8v36l31.1,18l31.1-18
		v-35.9l-31.1-18L1600.2,189.8L1600.2,189.8z"/>
	<path class="st1" d="M623,182.9v-38.9l33.7-19.5l33.6,19.4v39l-33.6,19.4L623,182.9L623,182.9z M625.6,145.4v36l31.1,18l31.1-17.9
		v-36.1l-31.1-17.9L625.6,145.4z"/>
	<path class="st1" d="M518,122.2V83.2l33.7-19.5l33.7,19.5v39l-33.7,19.5L518,122.2L518,122.2z M520.6,84.7v36l31.1,18l31.1-18v-36
		l-31.1-18L520.6,84.7z"/>
	<path class="st1" d="M588.1,243.6v-39.1l33.6-19.4l33.7,19.5v38.9L621.7,263L588.1,243.6L588.1,243.6z M590.7,206.1v36.1l31,17.9
		l31.1-18v-36l-31.1-18L590.7,206.1z"/>
	<path class="st1" d="M378.1,243.6v-38.9l33.7-19.5l33.6,19.4v39L411.9,263L378.1,243.6L378.1,243.6z M380.7,206.1v36l31.1,18
		l31.1-17.9v-36.1l-31.1-17.9L380.7,206.1z"/>
	<path class="st1" d="M413.1,61.5V22.6l33.7-19.5l33.6,19.4v39L446.8,81L413.1,61.5z M415.7,24.1v36l31.1,18l31.1-17.9V24L446.8,6.1
		L415.7,24.1z"/>
	<path class="st1" d="M483.1,182.9v-39.1l33.6-19.4l33.7,19.5v38.9l-33.7,19.5L483.1,182.9z M485.7,145.4v36.1l31.1,17.9l31.1-18
		v-36l-31.1-18L485.7,145.4L485.7,145.4z"/>
	<path class="st1" d="M448.2,243.6v-39.1l33.6-19.4l33.6,19.4v39.1L481.8,263L448.2,243.6z M450.8,206.1v36.1l31.1,17.9l31.1-17.9
		v-36.1l-31.1-17.9L450.8,206.1z"/>
	<path class="st1" d="M518.1,243.6v-39.1l33.7-19.4l33.6,19.4v39.1L551.8,263L518.1,243.6L518.1,243.6z M520.7,206.1v36.1l31.1,17.9
		l31.1-17.9v-36.1l-31-17.9L520.7,206.1L520.7,206.1z"/>
	<path class="st1" d="M413.1,182.9v-38.9l33.7-19.5l33.6,19.4v39.1l-33.6,19.4L413.1,182.9z M415.7,145.4v36l31.1,18l31.1-17.9
		v-36.1l-31.1-17.9L415.7,145.4z"/>
	<path class="st1" d="M483.1,61.6v-39l33.6-19.4l33.7,19.5v38.9L516.8,81L483.1,61.6L483.1,61.6z M485.7,24v36.1L516.8,78l31.1-18
		v-36l-31.1-18L485.7,24L485.7,24z"/>
	<g class="st3">
		<path class="st1" d="M600.9,278v-25.5l21.9-12.7l22,12.7v25.4l-22,12.7L600.9,278z"/>
		<path class="st1" d="M658.8,210.8v-25.5l21.9-12.7l22,12.7v25.4l-22,12.7L658.8,210.8z"/>
		<path class="st1" d="M313.9,180.9v-25.5l22-12.7l22,12.7v25.4l-22,12.7L313.9,180.9z"/>
		<path class="st1" d="M798,252.5V278L776,290.6l-22-12.7v-25.4l22-12.7L798,252.5z"/>
		<path class="st1" d="M438,206.3v25.5l-22,12.7l-22-12.7v-25.4l22-12.7L438,206.3z"/>
		<path class="st1" d="M417.8,247.5l22-12.7l22,12.7v25.4l-22,12.7l-22-12.7V247.5z"/>
		<path class="st1" d="M845.5,277.9l-22,12.7L801.5,278v-25.5l21.9-12.7l22,12.7V277.9z"/>
		<path class="st1" d="M597.3,278l-21.9,12.7l-22-12.7v-25.4l22-12.7l21.9,12.7V278z"/>
		<path class="st1" d="M1772.5,156.9v-25.5l21.9-12.7l22,12.7v25.4l-22,12.7L1772.5,156.9z"/>
		<path class="st1" d="M1887.7,115.7l-22,12.7l-22-12.7V90.3l22-12.7l22,12.7V115.7z"/>
		<path class="st1" d="M1840.1,198.1l-21.9,12.7l-22-12.7v-25.4l22-12.7l21.9,12.7V198.1z"/>
		<path class="st1" d="M1938.6,198.1v-25.5l21.9-12.7l22,12.7v25.4l-22,12.7L1938.6,198.1z"/>
		<path class="st1" d="M1914.9,74.6V49.1l21.9-12.7l22,12.7v25.4l-22,12.7L1914.9,74.6z"/>
		<path class="st1" d="M1911.3,156.9l-21.9,12.7l-22-12.7v-25.4l22-12.7l21.9,12.7V156.9z"/>
		<path class="st1" d="M1891.2,172.6l21.9-12.7l22,12.7v25.5l-22,12.7l-21.9-12.7V172.6z"/>
		<path class="st1" d="M1843.7,172.6l21.9-12.7l21.9,12.7v25.5l-21.9,12.7l-21.9-12.7V172.6z"/>
		<path class="st1" d="M1958.8,156.9l-22,12.7l-21.9-12.7v-25.5l21.9-12.7l22,12.7V156.9z"/>
		<path class="st1" d="M1911.3,74.6l-21.9,12.7l-22-12.7V49.1l22-12.7l21.9,12.7V74.6z"/>
	</g>
	<g class="st2">
		<path class="st1" d="M1398.5,202.9v-99.4l86.1-49.7l85.8,49.6v99.7l-85.8,49.6L1398.5,202.9L1398.5,202.9z M1401.1,105v96.4
			l83.5,48.2l83.3-48.1v-96.7l-83.3-48.1L1401.1,105z"/>
		<path class="st1" d="M1581.6,203.1v-99.7l85.9-49.6l86.1,49.7v99.4l-86.1,49.7L1581.6,203.1z M1584.2,104.9v96.7l83.3,48.1
			l83.5-48.2V105l-83.5-48.2L1584.2,104.9L1584.2,104.9z"/>
	</g>
</g>
<g>
	<g class="st2">
		<path class="st1" d="M967.5,161.2l-0.3-1.9l-0.4-1.9l-0.6-1.9l-0.6-1.4l-0.9-1.7l-1-1.7l-1.1-1.6l-1.3-1.5l-1.4-1.4l-1.5-1.2
			l-1.6-1.1l-1.7-1l-1.8-0.8l-1.8-0.7l-1.9-0.5l-1.9-0.4l-1.9-0.2l-1.9,0l-1.9,0.1l-1.9,0.3l-1.9,0.5l-1.8,0.6l-1.8,0.8l-1.7,0.9
			l-1.6,1.1l-1.5,1.2l-1.4,1.3l-1.3,1.4l-1.2,1.5l-1.1,1.6l-0.9,1.7l-0.8,1.8l-0.6,1.8l-0.5,1.9l-0.3,1.9l-0.2,1.9l0,1.9l0.2,1.9
			l0.3,1.9l0.5,1.9l0.7,1.8l0.8,1.8l1,1.7l1.1,1.6l1.2,1.5l1.4,1.4l1.5,1.3l1.6,1.2l1.7,1l1.7,0.9l1.8,0.7l1.9,0.6l1.9,0.4l1.9,0.3
			l2,0.1l1.9-0.1l1.9-0.2l1.9-0.4l1.9-0.6l1.8-0.7l1.7-0.9l1.7-1l1.6-1.1l1.5-1.3l1.4-1.4l1.2-1.5l1.1-1.6l1-1.7l0.8-1.8l0.7-1.8
			l0.5-1.9l0.4-1.9l0.2-1.9l0-2L967.5,161.2z M956,164.3l-0.2,1.4l-0.4,1.4l-0.5,1.4l-0.7,1.3l-0.9,1.2l-1,1.1l-1.1,0.9l-1.2,0.8
			l-1.3,0.6l-1.4,0.4l-1.4,0.3l-1.5,0.1l-1.5-0.1l-1.4-0.3l-1.4-0.5l-1.3-0.6l-1.2-0.8l-1.1-0.9l-1-1.1l-0.8-1.2l-0.7-1.3l-0.5-1.4
			l-0.4-1.4l-0.2-1.5l0-1.5l0.2-1.4l0.4-1.4l0.6-1.4l0.7-1.3l0.9-1.2l1-1l1.1-0.9l1.2-0.8l1.3-0.6l1.4-0.4l1.4-0.2l1.5-0.1l1.5,0.1
			l1.4,0.3l1.4,0.5l1.3,0.6l1.2,0.8l1.1,1l1,1.1l0.8,1.2l0.7,1.3l0.4,1.1l0.4,1.4l0.2,1.4V164.3z"/>
		<path class="st1" d="M1014.1,140.4l-0.3-1.9l-0.4-1.9l-0.6-1.9l-0.6-1.4l-0.9-1.7l-1-1.7l-1.1-1.6l-1.3-1.5l-1.4-1.4l-1.5-1.2
			l-1.6-1.1l-1.7-1l-1.8-0.8l-1.8-0.7l-1.9-0.5l-1.9-0.4l-1.9-0.2l-1.9,0l-1.9,0.1l-1.9,0.3l-1.9,0.5l-1.9,0.6l-1.8,0.8l-1.7,0.9
			l-1.6,1.1l-1.5,1.2l-1.4,1.3l-1.3,1.4l-1.2,1.5l-1.1,1.6l-0.9,1.7l-0.8,1.8l-0.6,1.8l-0.5,1.9l-0.3,1.9l-0.2,1.9l0,1.9l0.2,1.9
			l0.3,1.9l0.5,1.9l0.7,1.8l0.8,1.8l1,1.7l1.1,1.6l1.2,1.5l1.4,1.4l1.5,1.3l1.6,1.2l1.7,1l1.7,0.9l1.8,0.7l1.9,0.6l1.9,0.4l1.9,0.3
			l2,0.1l1.9-0.1l1.9-0.2l1.9-0.4l1.9-0.6l1.8-0.7l1.7-0.9l1.7-1l1.6-1.1l1.5-1.3l1.4-1.4l1.2-1.5l1.1-1.6l1-1.7l0.8-1.8l0.7-1.8
			l0.5-1.9l0.4-1.9l0.2-1.9l0-1.9L1014.1,140.4z M1002.7,143.6l-0.2,1.4l-0.4,1.4l-0.5,1.4l-0.7,1.3l-0.9,1.2l-1,1.1l-1.1,0.9
			l-1.2,0.8l-1.3,0.6l-1.4,0.4l-1.4,0.3l-1.5,0.1l-1.5-0.1l-1.4-0.3l-1.4-0.5l-1.3-0.6l-1.2-0.8l-1.1-0.9l-1-1.1l-0.9-1.2l-0.7-1.3
			l-0.5-1.4l-0.3-1.4l-0.2-1.5l0-1.5l0.2-1.4l0.4-1.4l0.6-1.4l0.7-1.3l0.9-1.2l1-1l1.1-0.9l1.2-0.8l1.3-0.6l1.4-0.4l1.4-0.2l1.5-0.1
			l1.5,0.1l1.4,0.3l1.4,0.5l1.3,0.6l1.2,0.8l1.1,1l1,1.1l0.8,1.2l0.7,1.3l0.4,1.1l0.4,1.4l0.2,1.4V143.6z"/>
		<path class="st1" d="M1060.8,119.7l-0.3-1.9l-0.4-1.9l-0.6-1.8l-0.6-1.4l-0.9-1.7l-1-1.7l-1.1-1.6l-1.3-1.5l-1.4-1.4l-1.5-1.2
			l-1.6-1.1l-1.7-1l-1.8-0.8l-1.8-0.7l-1.9-0.5l-1.9-0.4l-1.9-0.2l-2,0l-1.9,0.1l-1.9,0.3l-1.9,0.5l-1.9,0.6l-1.8,0.8l-1.7,0.9
			l-1.6,1.1l-1.5,1.2l-1.4,1.3l-1.3,1.4l-1.2,1.5l-1.1,1.6l-0.9,1.7l-0.8,1.8l-0.6,1.8l-0.5,1.9l-0.3,1.9l-0.2,1.9l0,1.9l0.2,1.9
			l0.3,1.9l0.5,1.9l0.7,1.8l0.8,1.8l1,1.7l1.1,1.6l1.2,1.5l1.4,1.4l1.5,1.3l1.6,1.2l1.7,1l1.7,0.9l1.8,0.7l1.9,0.6l1.9,0.4l1.9,0.3
			l1.9,0.1l2-0.1l1.9-0.2l1.9-0.4l1.9-0.6l1.8-0.7l1.7-0.9l1.7-1l1.6-1.1l1.5-1.3l1.4-1.4l1.3-1.5l1.1-1.6l1-1.7l0.8-1.8l0.7-1.8
			l0.5-1.9l0.4-1.9l0.2-1.9l0-1.9L1060.8,119.7z M1049.3,122.8l-0.2,1.4l-0.4,1.4l-0.5,1.4l-0.7,1.3l-0.9,1.2l-1,1.1l-1.1,0.9
			l-1.2,0.8l-1.3,0.6l-1.4,0.4l-1.4,0.3l-1.5,0.1l-1.5-0.1l-1.4-0.3l-1.4-0.5l-1.3-0.6l-1.2-0.8l-1.1-0.9l-1-1.1l-0.9-1.2l-0.7-1.3
			l-0.5-1.4l-0.3-1.4l-0.2-1.4l0-1.5l0.2-1.4l0.4-1.4l0.6-1.4l0.7-1.3l0.9-1.2l1-1l1.1-0.9l1.2-0.8l1.3-0.6l1.4-0.4l1.4-0.2l1.5-0.1
			l1.5,0.1l1.4,0.3l1.4,0.5l1.3,0.6l1.2,0.8l1.1,1l1,1.1l0.8,1.2l0.7,1.3l0.4,1.1l0.4,1.4l0.2,1.4L1049.3,122.8z"/>
		
			<rect x="954.5" y="133.3" transform="matrix(0.9133 -0.4072 0.4072 0.9133 19.4965 404.6418)" class="st1" width="11.6" height="46.4"/>
		<polygon class="st1" points="989.9,168.7 979.3,173.5 951,109.9 961.6,105.2 		"/>
		
			<rect x="1043.1" y="69.6" transform="matrix(0.9136 -0.4067 0.4067 0.9136 48.1928 435.5807)" class="st1" width="11.6" height="69.6"/>
	</g>
	<circle class="st4" cx="991.1" cy="142.8" r="87.9"/>
</g>
</svg>
